# xmcd
#
# Track frame offsets:
#	150
#	3981
#	27531
#	49612
#	71256
#	91657
#	116033
#	134932
#	153916
#	181157
#	197482
#	220154
#	239181
#	260937
#	279838
#	303326
#
# Disc length: 4295 seconds
#
# Revision: 0
# Processed by: cddbd v1.5.2PL0 Copyright (c) Steve Scherf et al.
# Submitted via: dBpowerAMP V4.0
#
DISCID=e310c510
DTITLE=Luniz - (csbRip) - Greatest Hits
DYEAR=2004
DGENRE=Hip Hop
TTITLE0=1.Intro
TTITLE1=2.So Much Drama
TTITLE2=3.Just Me And You
TTITLE3=4.Oakland Raiders
TTITLE4=5.Playa Hata
TTITLE5=6.In My Nature
TTITLE6=7.Fuck You
TTITLE7=8.I Got 5 On It
TTITLE8=9.Killers On The Payroll
TTITLE9=10.Big Face Escalade
TTITLE10=11.Pimps,Playaz And Hustlers
TTITLE11=12.Baby Momma
TTITLE12=13.Closer Than Close
TTITLE13=14.Broke Hoes Is A No No
TTITLE14=15.Mob
TTITLE15=16.Break Me Off
EXTD=
EXTT0=
EXTT1=
EXTT2=
EXTT3=
EXTT4=
EXTT5=
EXTT6=
EXTT7=
EXTT8=
EXTT9=
EXTT10=
EXTT11=
EXTT12=
EXTT13=
EXTT14=
EXTT15=
PLAYORDER=
